HIERARCHY
ROOT Hips
{
 OFFSET 0.000000 0.000000 0.000000
 CHANNELS 6 Xposition Yposition Zposition Yrotation Xrotation Zrotation
 JOINT Chest
 {
  OFFSET 0.000000 9.585900 0.002600
  CHANNELS 3 Yrotation Xrotation Zrotation
  JOINT Chest2
  {
   OFFSET 0.000000 9.601200 -0.005300
   CHANNELS 3 Yrotation Xrotation Zrotation
   JOINT Chest3
   {
    OFFSET 0.000000 9.561800 0.000000
    CHANNELS 3 Yrotation Xrotation Zrotation
    JOINT Chest4
    {
     OFFSET 0.000000 9.552100 0.000000
     CHANNELS 3 Yrotation Xrotation Zrotation
     JOINT Neck
     {
      OFFSET 0.000000 14.453000 0.000000
      CHANNELS 3 Yrotation Xrotation Zrotation
      JOINT Head
      {
       OFFSET 0.000000 8.936500 -0.011300
       CHANNELS 3 Yrotation Xrotation Zrotation
       End Site
       {
        OFFSET 0.000000 17.073600 -0.006000
       }
      }
     }
     JOINT RightCollar
     {
      OFFSET -2.921100 9.558500 0.000000
      CHANNELS 3 Yrotation Xrotation Zrotation
      JOINT RightShoulder
      {
       OFFSET -13.519700 0.000000 0.000000
       CHANNELS 3 Yrotation Xrotation Zrotation
       JOINT RightElbow
       {
        OFFSET 0.000000 -29.696600 0.000000
        CHANNELS 3 Yrotation Xrotation Zrotation
        JOINT RightWrist
        {
         OFFSET 0.000000 -24.004700 0.000000
         CHANNELS 3 Yrotation Xrotation Zrotation
         End Site
         {
          OFFSET 0.000000 -17.728500 0.000000
         }
        }
       }
      }
     }
     JOINT LeftCollar
     {
      OFFSET 2.921100 9.558500 0.000000
      CHANNELS 3 Yrotation Xrotation Zrotation
      JOINT LeftShoulder
      {
       OFFSET 13.519700 0.000000 0.000000
       CHANNELS 3 Yrotation Xrotation Zrotation
       JOINT LeftElbow
       {
        OFFSET 0.000000 -29.696600 0.000000
        CHANNELS 3 Yrotation Xrotation Zrotation
        JOINT LeftWrist
        {
         OFFSET 0.000000 -24.004700 0.000000
         CHANNELS 3 Yrotation Xrotation Zrotation
         End Site
         {
          OFFSET 0.000000 -17.728500 0.000000
         }
        }
       }
      }
     }
    }
   }
  }
 }
 JOINT RightHip
 {
  OFFSET -7.771700 -0.012900 -0.001300
  CHANNELS 3 Yrotation Xrotation Zrotation
  JOINT RightKnee
  {
   OFFSET 0.000000 -40.869800 0.001200
   CHANNELS 3 Yrotation Xrotation Zrotation
   JOINT RightAnkle
   {
    OFFSET 0.000000 -39.717900 0.002100
    CHANNELS 3 Yrotation Xrotation Zrotation
    JOINT RightToe
    {
     OFFSET 0.000000 -4.965400 11.033500
     CHANNELS 3 Yrotation Xrotation Zrotation
     End Site
     {
      OFFSET 0.000000 -1.423100 5.872300
     }
    }
   }
  }
 }
 JOINT LeftHip
 {
  OFFSET 7.771700 -0.012900 -0.001300
  CHANNELS 3 Yrotation Xrotation Zrotation
  JOINT LeftKnee
  {
   OFFSET 0.000000 -40.869800 0.001200
   CHANNELS 3 Yrotation Xrotation Zrotation
   JOINT LeftAnkle
   {
    OFFSET 0.000000 -39.717900 0.002100
    CHANNELS 3 Yrotation Xrotation Zrotation
    JOINT LeftToe
    {
     OFFSET 0.000000 -4.965400 11.033500
     CHANNELS 3 Yrotation Xrotation Zrotation
     End Site
     {
      OFFSET 0.000000 -1.423100 5.872300
     }
    }
   }
  }
 }
}
MOTION
Frames: 16
Frame Time: 0.008333
0.000000 85.388000 0.000000 0.000000 -5.767877 0.000000 0.000000 11.653817 0.000000 0.000000 -5.885947 0.000000 0.000000 -0.000000 0.000000 0.000000 -0.000000 0.000000 0.000000 12.528835 0.000000 0.000000 0.711642 0.000000 0.000000 -0.000000 0.000000 0.000000 0.000000 -90.000000 0.000000 -2.309062 0.000000 0.000000 2.309062 0.000000 0.000000 -0.000000 0.000000 0.000000 -0.000000 90.000000 0.000000 -2.309062 0.000000 0.000000 2.309062 0.000000 0.000000 8.520406 0.000000 0.000000 1.905762 0.000000 -0.000000 -4.658285 0.000000 0.000000 -0.000000 0.000000 0.000000 8.520406 0.000000 0.000000 1.905762 0.000000 -0.000000 -4.658285 0.000000 0.000000 -0.000000 0.000000
-222.360183 56.890905 136.420370 177.594795 -29.650991 -0.819567 0.331198 19.595852 1.215999 -0.013451 2.376382 0.217277 -0.016838 3.892310 0.339415 0.103278 16.890917 1.556569 -10.413184 12.339579 -3.582710 -18.319501 -12.446747 -2.526910 4.962411 -3.020327 -0.808867 17.515741 -20.843613 -15.694249 96.655125 -61.118233 -53.051481 16.705233 -25.849522 -49.509227 -7.683913 -3.553053 -3.786485 -1.475761 -16.643522 -2.494356 -19.598536 -74.331219 -10.093592 1.346160 -16.950051 18.251534 3.101563 -47.731651 -5.768790 -9.059291 66.831758 -14.558648 13.841466 27.595694 8.891103 -0.252958 -16.821065 2.951387 -9.910079 -44.234243 2.152796 32.324758 70.463073 34.959893 -13.128606 2.778190 -6.172209 0.172636 0.652191 0.089552
-222.354179 56.893104 136.417317 177.610434 -29.656173 -0.826107 0.317193 19.596956 1.210625 -0.013422 2.370230 0.211138 -0.013407 3.885861 0.328592 0.099467 16.875324 1.522741 -10.393803 12.526485 -3.539804 -18.301219 -12.323106 -2.465834 4.966970 -3.008814 -0.784787 17.526218 -20.841100 -15.744725 96.659581 -61.142278 -53.079911 16.701905 -25.859288 -49.532752 -7.684162 -3.533446 -3.794353 -1.473694 -16.646552 -2.479461 -19.586597 -74.343569 -10.097967 1.340228 -16.943479 18.238210 3.077257 -47.723228 -5.756851 -9.074060 66.838604 -14.568642 13.797380 27.578279 8.852395 -0.252948 -16.809820 2.965555 -9.922381 -44.227939 2.151136 32.324122 70.464070 34.964256 -13.124922 2.781423 -6.176449 0.163501 0.645120 0.085161
-222.347359 56.895554 136.414339 177.625931 -29.659423 -0.832155 0.308296 19.592286 1.200072 -0.013260 2.367767 0.208530 -0.013182 3.883458 0.321501 0.097538 16.865354 1.497999 -10.365323 12.643377 -3.494866 -18.257587 -12.117224 -2.419787 4.965409 -3.005805 -0.772098 17.528603 -20.839068 -15.754253 96.657675 -61.128759 -53.094629 16.677770 -25.883096 -49.547684 -7.689420 -3.522150 -3.799493 -1.480834 -16.654018 -2.477461 -19.613962 -74.340908 -10.052161 1.340657 -16.952165 18.228088 3.046571 -47.716223 -5.736711 -9.086125 66.847114 -14.580067 13.739371 27.552865 8.792566 -0.233278 -16.792417 2.989485 -9.937248 -44.222700 2.153966 32.318031 70.466459 34.959150 -13.125273 2.781685 -6.173897 0.159637 0.641018 0.078004
-222.338113 56.898406 136.411387 177.647559 -29.662645 -0.852479 0.298119 19.587591 1.195718 -0.012901 2.366241 0.206487 -0.013492 3.883580 0.324410 0.092683 16.857388 1.475360 -10.327033 12.763166 -3.449650 -18.193788 -11.893443 -2.364477 4.965929 -3.004693 -0.767272 17.535956 -20.840862 -15.767163 96.649204 -61.114325 -53.099739 16.656373 -25.904240 -49.568601 -7.689925 -3.513528 -3.807919 -1.487305 -16.669612 -2.487756 -19.729611 -74.307051 -9.926612 1.344587 -16.963824 18.224522 2.978675 -47.708049 -5.684931 -9.082524 66.852196 -14.580470 13.677545 27.529944 8.704350 -0.215080 -16.773795 3.032316 -9.967968 -44.217354 2.169852 32.318944 70.468052 34.962266 -13.116008 2.788503 -6.166951 0.148335 0.632772 0.066774
-222.331468 56.901001 136.409398 177.663039 -29.658802 -0.853317 0.289261 19.575634 1.177218 -0.012749 2.352451 0.186595 -0.017251 3.891625 0.336572 0.089095 16.853233 1.456806 -10.277483 12.892857 -3.395407 -18.111455 -11.651201 -2.297885 4.971521 -3.000957 -0.760195 17.534312 -20.842226 -15.756259 96.659228 -61.077482 -53.118339 16.656977 -25.917263 -49.599948 -7.686777 -3.499581 -3.806662 -1.504406 -16.716992 -2.558555 -19.765838 -74.298997 -9.854745 1.302043 -16.895715 18.222370 2.953697 -47.708401 -5.679663 -9.094754 66.854626 -14.584735 13.638811 27.521902 8.645375 -0.195803 -16.765766 3.054503 -9.980599 -44.219848 2.166795 32.314991 70.467452 34.956733 -13.108554 2.795336 -6.162765 0.134483 0.625516 0.060149
-222.325811 56.904060 136.407226 177.667090 -29.656927 -0.843097 0.283098 19.558867 1.142337 -0.013126 2.359401 0.195022 -0.017488 3.883400 0.321673 0.088026 16.853018 1.444348 -10.218853 13.031566 -3.331258 -18.015270 -11.391868 -2.217192 4.980191 -2.997831 -0.751490 17.532415 -20.844357 -15.746107 96.665746 -61.039970 -53.129715 16.696177 -25.901519 -49.639450 -7.680986 -3.480730 -3.781253 -1.509227 -16.744314 -2.596819 -19.781307 -74.289144 -9.821263 1.310182 -16.906473 18.207214 2.953681 -47.706674 -5.689493 -9.101116 66.854645 -14.590325 13.645931 27.513849 8.618813 -0.204007 -16.766460 3.075624 -9.978270 -44.218743 2.152365 32.306005 70.465971 34.952838 -13.103600 2.797362 -6.169983 0.143386 0.620557 0.058678
-222.318293 56.907321 136.405480 177.674840 -29.653797 -0.847595 0.277451 19.551972 1.134800 -0.013426 2.360829 0.198609 -0.016758 3.875116 0.301727 0.086200 16.849573 1.428191 -10.152394 13.178988 -3.257156 -17.907673 -11.115819 -2.121745 4.985699 -2.995716 -0.744005 17.539242 -20.850896 -15.761192 96.666558 -60.969094 -53.141979 16.649411 -25.934996 -49.675273 -7.684523 -3.474153 -3.787305 -1.512543 -16.759838 -2.598711 -19.820965 -74.268407 -9.768037 1.355150 -16.977862 18.203708 2.935230 -47.707208 -5.682675 -9.158358 66.853535 -14.627739 13.633438 27.506171 8.566556 -0.266767 -16.767023 3.116327 -9.991681 -44.215632 2.157516 32.318137 70.457661 34.970126 -13.104090 2.794296 -6.185894 0.141156 0.621570 0.064661
-222.313498 56.912513 136.400713 177.699986 -29.671469 -0.846018 0.254206 19.563937 1.101613 -0.013457 2.359536 0.196475 -0.016740 3.874332 0.304858 0.084577 16.845217 1.407932 -10.078390 13.335276 -3.173097 -17.789092 -10.822735 -2.011458 4.986469 -2.993840 -0.737490 17.561582 -20.854279 -15.815958 96.644086 -61.019798 -53.148847 16.649870 -25.936655 -49.687489 -7.686875 -3.471841 -3.794187 -1.516934 -16.770404 -2.600129 -19.770210 -74.273451 -9.807553 1.351694 -16.974079 18.206521 2.875730 -47.682269 -5.671471 -9.256928 66.860465 -14.700197 13.532116 27.453687 8.427026 -0.202623 -16.719863 3.150256 -10.009215 -44.191056 2.139488 32.322747 70.447600 34.968825 -13.094998 2.794292 -6.183300 0.129790 0.622610 0.059399
-222.308486 56.916007 136.399405 177.709244 -29.666838 -0.841421 0.246765 19.547597 1.056850 -0.011467 2.358732 0.197175 -0.018394 3.884015 0.334615 0.079158 16.839137 1.377621 -9.996681 13.500037 -3.079446 -17.659182 -10.513488 -1.886999 4.989259 -2.994464 -0.733012 17.554774 -20.857240 -15.795102 96.645427 -61.003402 -53.154026 16.651816 -25.938203 -49.700093 -7.697883 -3.479486 -3.832448 -1.521131 -16.770960 -2.569220 -19.719892 -74.282591 -9.844365 1.348630 -16.966315 18.207321 2.857609 -47.681282 -5.672500 -9.273086 66.860080 -14.711497 13.514938 27.433152 8.388281 -0.200160 -16.703373 3.164844 -10.016475 -44.193521 2.128906 32.318129 70.443197 34.968198 -13.089410 2.803847 -6.187892 0.125412 0.613976 0.056318
-222.303309 56.919868 136.397761 177.716984 -29.665841 -0.840131 0.234999 19.542418 1.033194 -0.007200 2.362089 0.209453 -0.016874 3.879271 0.316896 0.074052 16.839603 1.365481 -9.906686 13.672038 -2.976294 -17.516903 -10.190471 -1.748690 4.997042 -2.995240 -0.715088 17.561359 -20.854799 -15.822892 96.634904 -60.984703 -53.159345 16.648982 -25.949398 -49.720381 -7.701714 -3.483928 -3.849595 -1.523958 -16.774249 -2.560546 -19.553754 -74.315284 -9.991848 1.307237 -16.919188 18.207943 2.849736 -47.679490 -5.676648 -9.296465 66.862861 -14.723323 13.507544 27.423396 8.360564 -0.213672 -16.704244 3.178188 -10.024312 -44.191629 2.120541 32.313329 70.440709 34.970740 -13.083043 2.808040 -6.192617 0.123829 0.608024 0.051302
-222.296595 56.923546 136.396729 177.724684 -29.662523 -0.851944 0.227566 19.534433 1.022495 -0.009016 2.361830 0.209243 -0.019076 3.877119 0.302249 0.084540 16.844057 1.371119 -9.812233 13.846971 -2.873296 -17.363121 -9.856246 -1.595280 5.004356 -2.998304 -0.705234 17.552692 -20.850541 -15.843359 96.627102 -60.924271 -53.155832 16.648267 -25.954161 -49.753390 -7.703500 -3.491209 -3.862387 -1.524239 -16.775692 -2.565986 -19.507971 -74.326471 -10.028115 1.274554 -16.879902 18.210067 2.805060 -47.677242 -5.649785 -9.312064 66.861727 -14.728172 13.508837 27.394564 8.290014 -0.197853 -16.688406 3.211303 -10.041457 -44.190782 2.130309 32.306311 70.436648 34.974513 -13.086329 2.815229 -6.200535 0.121479 0.600181 0.048855
-222.291123 56.927975 136.394324 177.723324 -29.669850 -0.856101 0.229675 19.538064 1.013201 -0.011928 2.361097 0.203267 -0.015882 3.879434 0.310581 0.087904 16.845372 1.373559 -9.717312 14.020583 -2.779977 -17.198242 -9.513550 -1.428198 5.005487 -3.005286 -0.729742 17.547950 -20.840252 -15.870048 96.631652 -60.949128 -53.177767 16.649871 -25.949557 -49.763072 -7.707371 -3.502586 -3.889444 -1.525151 -16.773920 -2.563746 -19.543014 -74.317732 -9.989728 1.292291 -16.894254 18.205486 2.769994 -47.662597 -5.618985 -9.343335 66.862169 -14.749023 13.439546 27.358350 8.207895 -0.169506 -16.656309 3.236915 -10.044827 -44.180683 2.131043 32.305334 70.440166 34.983374 -13.078587 2.816421 -6.205044 0.119194 0.593141 0.046746
-222.288286 56.932087 136.392173 177.733594 -29.675962 -0.855588 0.218955 19.543032 1.002520 -0.014538 2.349471 0.165333 -0.010278 3.887257 0.328066 0.091005 16.846081 1.358017 -9.605211 14.204779 -2.645117 -17.019301 -9.166257 -1.251357 5.010626 -3.008732 -0.719960 17.539715 -20.839036 -15.867410 96.630819 -60.965280 -53.187614 16.657204 -25.926717 -49.764776 -7.708122 -3.504399 -3.884380 -1.531125 -16.765964 -2.539545 -19.516242 -74.322789 -10.011993 1.305583 -16.903030 18.214813 2.740160 -47.651973 -5.610023 -9.378311 66.862109 -14.778085 13.417020 27.341160 8.163580 -0.193099 -16.646623 3.259161 -10.051360 -44.170736 2.114214 32.315616 70.429684 35.000328 -13.071275 2.823377 -6.204939 0.110120 0.588122 0.040352
-222.286082 56.936045 136.390115 177.738175 -29.682666 -0.854020 0.211048 19.542007 0.977738 -0.016468 2.350116 0.164761 -0.013910 3.880483 0.301801 0.108777 16.854675 1.369855 -9.487636 14.390829 -2.505794 -16.823558 -8.817786 -1.066172 5.012474 -3.020264 -0.747439 17.524982 -20.836477 -15.829666 96.603595 -60.954497 -53.171515 16.649083 -25.943383 -49.779266 -7.704015 -3.502421 -3.877692 -1.534008 -16.775487 -2.553823 -19.393272 -74.333904 -10.126273 1.274912 -16.871794 18.202394 2.716716 -47.642137 -5.601383 -9.401936 66.863646 -14.792140 13.380627 27.332000 8.113959 -0.182692 -16.638195 3.272521 -10.059458 -44.163681 2.092894 32.343024 70.422865 35.036545 -13.040501 2.836826 -6.202764 0.093484 0.576328 0.030392
-222.282712 56.940631 136.386858 177.751273 -29.698896 -0.868440 0.198508 19.549646 0.965881 -0.015142 2.355698 0.173749 -0.016714 3.880148 0.295391 0.085947 16.850670 1.319666 -9.331082 14.586024 -2.333582 -16.613715 -8.470518 -0.870485 5.038957 -3.018931 -0.720386 17.522158 -20.836686 -15.820814 96.576861 -60.938451 -53.149106 16.642516 -25.956073 -49.797162 -7.673993 -3.489184 -3.831587 -1.527503 -16.796310 -2.605660 -19.511222 -74.298656 -10.009686 1.287570 -16.877193 18.181837 2.673508 -47.617614 -5.583431 -9.425098 66.865289 -14.797807 13.371342 27.294591 8.059820 -0.175251 -16.615318 3.288918 -10.076721 -44.145410 2.091260 32.346336 70.422439 35.051693 -13.033507 2.843296 -6.209301 0.081495 0.567052 0.028981
